<svg xmlns="http://www.w3.org/2000/svg" viewBox="0 0 218.26 252.03"><defs><style>.cls-1{fill:#3851a3;stroke:#505050;stroke-miterlimit:5.33;stroke-width:3px;}.cls-2{fill:#fff;fill-rule:evenodd;}</style></defs><g id="svg2"><g id="g10"><g id="g12"><g id="g14"><path id="path16" class="cls-1" d="M217.76,189.3,110.13,251.45,2.5,189.3V65L110.13,2.89,217.76,65Z" transform="translate(-1 -1.15)"/></g></g></g></g><g id="Layer_2" data-name="Layer 2"><path class="cls-2" d="M150.63,79.73c6.44-13.75,6.33-25.11.13-34.25l-38.51,66.84,9.57,17,28.81-49.56Zm-82.25,0C62,66,62.06,54.62,68.26,45.48l46.6,80.88a16.06,16.06,0,0,1,3.68,9c.16,3-.69,4.09-1.18,6.71a9,9,0,0,0,1.28,6.72l1.94,2.12c1.75,1.91,3.24,4.2,6.19,3.82,2-.24,3.62-1.91,5-4.59a19,19,0,0,1,6.46-4.7,22.22,22.22,0,0,1,8.06-1.81c9.4.49,17.52,4.87,23.62,15.45,7.39,12,6.55,22.22,1.06,31.33-4.23,5.55-9.34,8-15.15,8-8.86,0-16.05-4.24-21.62-10.86-3.54-4.2-6.47-9.24-9.56-14.85l-11.24-14.36L112.13,155,68.38,79.73Zm41.4,50.12a4.46,4.46,0,1,1-4.45,4.46,4.45,4.45,0,0,1,4.45-4.46Zm27.69,27.66c3.17-4.85,8.52-5.36,13.63-3.57,4.09,1.45,7.62,4.51,10.61,9.11a26.67,26.67,0,0,1,4,15.57c-1,10.51-10.33,12.5-18.49,7.91a21.17,21.17,0,0,1-8.61-9.17,30.14,30.14,0,0,1-3.05-9.38,15.06,15.06,0,0,1,1.94-10.47Zm-35.84-11.74a9.23,9.23,0,0,1-1.25,3l-1.95,2.13c-1.74,1.91-3.23,4.19-6.18,3.82-2-.25-3.62-1.91-5-4.59a19.12,19.12,0,0,0-6.46-4.7,22.27,22.27,0,0,0-8.06-1.81c-9.4.49-17.52,4.87-23.62,15.44-7.39,12.05-6.55,22.23-1.06,31.34,4.23,5.55,9.33,8,15.14,8,8.86,0,16.06-4.24,21.63-10.86,3.53-4.2,6.47-9.24,9.56-14.85l13.23-16.9-.44-.74-.14-.23-5.35-9ZM81.56,157.51c-3.17-4.85-8.52-5.36-13.63-3.57-4.09,1.45-7.62,4.51-10.61,9.11a26.6,26.6,0,0,0-4,15.58c1,10.52,10.33,12.51,18.49,7.91a21.25,21.25,0,0,0,8.62-9.17,30.12,30.12,0,0,0,3-9.38,15.19,15.19,0,0,0-2-10.48Z" transform="translate(-1 -1.15)"/></g></svg>